/* XPM */
static char *_a8b22ffacaf4504aa22799dd313db8bQua4DQ893ZA6Ic7Q[] = {
/* columns rows colors chars-per-pixel */
"50 50 119 2 ",
"   c black",
".  c #B9B1A7",
"X  c #BBB3A9",
"o  c #BEB6AC",
"O  c #C7BFB5",
"+  c #A29B92",
"@  c #B0A99F",
"#  c #B4ACA2",
"$  c #2C2E31",
"%  c #9D978E",
"&  c #969088",
"*  c None",
"=  c #161615",
"-  c #030201",
";  c #C2B9AF",
":  c #9B948C",
">  c #1D1C1B",
",  c #CBC3B9",
"<  c #3C3F42",
"1  c #272624",
"2  c #A59E95",
"3  c #C5BCB2",
"4  c #010100",
"5  c #8B867F",
"6  c #928B83",
"7  c #383532",
"8  c #ADA59C",
"9  c #B6AFA5",
"0  c #464440",
"q  c #5E6267",
"w  c #373A3E",
"e  c #6A655F",
"r  c #2D2420",
"t  c #5E5A55",
"y  c #322D2A",
"u  c #6D6963",
"i  c #212325",
"p  c #88827B",
"a  c #99938A",
"s  c #20201F",
"d  c black",
"f  c #514E49",
"g  c #020000",
"h  c #A8A198",
"j  c #060603",
"k  c #232323",
"l  c #64696E",
"z  c black",
"x  c #635F5A",
"c  c #4A4743",
"v  c #5A5752",
"b  c #A0A9B5",
"n  c black",
"m  c #858077",
"M  c #070404",
"N  c #7E7972",
"B  c #7A828C",
"V  c #3D3B37",
"C  c #1C1B1A",
"Z  c #404549",
"A  c #020202",
"S  c #26292B",
"D  c black",
"F  c #716C67",
"G  c #0D0A08",
"H  c #464A4E",
"J  c #585D63",
"K  c #343638",
"L  c #050707",
"P  c gray3",
"I  c #151411",
"U  c #77726B",
"Y  c #131310",
"T  c black",
"R  c black",
"E  c #0F0E0C",
"W  c #161515",
"Q  c #D1C8BD",
"!  c #4F5A64",
"~  c gray1",
"^  c #DDD5CB",
"/  c #1E1E1E",
"(  c #55524D",
")  c #4A5056",
"_  c #101010",
"`  c #726D68",
"'  c #191412",
"]  c #151310",
"[  c #4A3A34",
"{  c #43403C",
"}  c #1D1C1A",
"|  c #2F2A26",
" . c #54595D",
".. c #111210",
"X. c #242321",
"o. c #646B72",
"O. c #725147",
"+. c #2A2B2C",
"@. c #0B0B0B",
"#. c #1C1C19",
"$. c #6A4D43",
"%. c black",
"&. c #141412",
"*. c #1C1C18",
"=. c #B1ABA5",
"-. c #979DA5",
";. c #6D7279",
":. c #1B1B19",
">. c #1E1E1E",
",. c #787D85",
"<. c #E3DED7",
"1. c #D8D0C7",
"2. c #25241F",
"3. c #575657",
"4. c #1D1D1A",
"5. c #14120F",
"6. c #10100F",
"7. c gray15",
"8. c #393B3C",
/* pixels */
"                                                                                                    ",
"                                                                                                    ",
"                                                                                                    ",
"                                                                                                    ",
"                                                                                                    ",
"                                                                                                    ",
"                                                                                                    ",
"                                                                                                    ",
"                                                                                                    ",
"                                                                                                    ",
"                                                                                                    ",
"                                                                                                    ",
"                                                                                                    ",
"                                        d A z - - 4 g P                                             ",
"                                    z E 2.V f t x x v 7 _ 4                                         ",
"                                n 6.0 N 6 : + @ o O ; 3 =.u I z                                     ",
"                              n s N + : a h . o X . + X 3 1., c D                                   ",
"                              I p % p + 9 o X 9 . . X X . # , <.0 g                                 ",
"                            - ( h m % o X X 9 8 X . X # # 8 # Q O W                                 ",
"                            W 6 6 p X X X . . X . . X @ 8 X . 9 ^ v G                               ",
"                          n V 2 U 5 o X @ 9 X . . . . X X X . . , 5 D                               ",
"                          4 v h e F # o h @ X . . . . . . . . . 3 & ~                               ",
"                          D e 2 5 y u X o X X . . . . . X 2 @ o O p T                               ",
"                          - x : & e 7 2 o X o o X . . . . 9 X X O ` 4                               ",
"                          z f a & c x % 8 2 % @ o ; . . . ; # 6 % 0 A                               ",
"                          M y + 5 0 : & : t X.V F + ; . ; @ f i | }                                 ",
"                            _ p a ( 5 % 6 > i i = 1 a O @ 7 = $ s I                                 ",
"                            g 7 2 m U + 2 > i $ $ L t ^ 6 R > > = C d                               ",
"                              ~ { a & + , t L ..@.y # & 5 e 1 1 u * P                               ",
"                                - C t % , O U v N o Q 7 L X o o % Y                                 ",
"                                  P T } c : 3 , O ; o ` u # , . X.M                                 ",
"                                      d R 1 o X 3 X o 3 O 3 ; : %.                                  ",
"                                      :.$ s c f 8 e 8 m u & 0 { j                                   ",
"                                    g 5.w < = ..= i 1 s = &.4 j                                     ",
"                                  - Z H $ = q l $ w ! w < C                                         ",
"                              M #.$ Z ) ! l < b B J S q -.* ]                                       ",
"                              A K Z q b l  .H q ,.;. .J 3.1 *.                                      ",
"                                7.< l b q < > r | r y r 7 * >.                                      ",
"                                G S * < ) H * B o.[ $.O.F $ -                                       ",
"                                  ] S J B > > w 8.y r [ r j                                         ",
"                                    j +.K 1 w K E Y * < * '                                         ",
"                                      d 4 / k k 4.' k k / G                                         ",
"                                                                                                    ",
"                                                                                                    ",
"                                                                                                    ",
"                                                                                                    ",
"                                                                                                    ",
"                                                                                                    ",
"                                                                                                    ",
"                                                                                                    "
};
