/* XPM */
static char *close_door[] = {
/* columns rows colors chars-per-pixel */
"32 32 5 1 ",
"  c black",
". c #9C3A10",
"X c #9C5A3C",
"o c #FFC20E",
"O c #C9D6D0",
/* pixels */
"OOOOOOOOOOOOOOOOOOOOOOOOOOOOOOOO",
"OOOOOOOOOOOOOOOOOOOOOOOOOOOOOOOO",
"OOOOOOOOOOOOOOOOOOOOOOOOOOOOOOOO",
"OOOOOOOOOOOOOOOOOOOOOOOOOOOOOOOO",
"OOOOOOOOOOOOOOOOOOOOOOOOOOOOOOOO",
"OOOOOOOOOOOOOOOOOOOOOOOOOOOOOOOO",
"OOOOOOOOOOOOOOOOOOOOOOOOOOOOOOOO",
"OOOOOOOOOOOOOOOOOOOOOOOOOOOOOOOO",
"OOOOOOOOOOOOOO    OOOOOOOOOOOOOO",
"OOOOOOOOOOOOO X..X OOOOOOOOOOOOO",
"OOOOOOOOOOOO .X..X. OOOOOOOOOOOO",
"OOOOOOOOOOOO .X..X. OOOOOOOOOOOO",
"OOOOOOOOOOO X.X..X.X OOOOOOOOOOO",
"OOOOOOOOOOO X.X..X.X OOOOOOOOOOO",
"OOOOOOOOOOO X.X..X.X OOOOOOOOOOO",
"OOOOOOOOOOO X.X..X.X OOOOOOOOOOO",
"OOOOOOOOOOO X.X..X.X OOOOOOOOOOO",
"OOOOOOOOOOO X.X..X.X OOOOOOOOOOO",
"OOOOOOOOOOO X.X..X.X OOOOOOOOOOO",
"OOOOOOOOOOO X.X..X.X OOOOOOOOOOO",
"OOOOOOOOOOO X.X..X.X OOOOOOOOOOO",
"OOOOOOOOOOO X.X..XoX OOOOOOOOOOO",
"OOOOOOOOOOO X.X..X.X OOOOOOOOOOO",
"OOOOOOOOOOO X.X..X.X OOOOOOOOOOO",
"OOOOOOOOOOO X.X..X.X OOOOOOOOOOO",
"OOOOOOOOOOO X.X..X.X OOOOOOOOOOO",
"OOOOOOOOOOO X.X..X.X OOOOOOOOOOO",
"OOOOOOOOOOO X.X..X.X OOOOOOOOOOO",
"OOOOOOOOOOO X.X..X.X OOOOOOOOOOO",
"OOOOOOOOOOO X.X..X.X OOOOOOOOOOO",
"OOOOOOOOOOO X.X..X.X OOOOOOOOOOO",
"OOOOOOOOOOO X.X..X.X OOOOOOOOOOO"
};
