/* XPM */
static char *coin[] = {
/* columns rows colors chars-per-pixel */
"50 50 240 2 ",
"   c #1D091D",
".  c #15101F",
"X  c #0C0117",
"o  c #371517",
"O  c #2B1117",
"+  c #05173B",
"@  c #0B0E2D",
"#  c #3B1E21",
"$  c #241E28",
"%  c #2F3033",
"&  c #343539",
"*  c #36393D",
"=  c #3A3B3E",
"-  c #313235",
";  c #26262D",
":  c #1B2632",
">  c #4E0F10",
",  c #730C00",
"<  c #751A01",
"1  c #7B1F00",
"2  c #771508",
"3  c #670F00",
"4  c #4E2E18",
"5  c #7F2000",
"6  c #75290B",
"7  c #6E2D14",
"8  c #4E3931",
"9  c #6D2C26",
"0  c #6F1D21",
"q  c #774817",
"w  c #705218",
"e  c #6F5235",
"r  c #636129",
"t  c #0A2041",
"y  c #162B48",
"u  c #173051",
"i  c #3C3E41",
"p  c #323642",
"a  c #273A53",
"s  c #353F50",
"d  c #293149",
"f  c #202E61",
"g  c #463647",
"h  c #3E4149",
"j  c #374759",
"k  c #2F445D",
"l  c #414346",
"z  c #46474A",
"x  c #4A4A4B",
"c  c #464A4F",
"v  c #4B4E52",
"b  c #424E5A",
"n  c #4E575D",
"m  c #535354",
"M  c #565758",
"N  c #5B5C5C",
"B  c #584A51",
"V  c #73534F",
"C  c #60615F",
"Z  c #766651",
"A  c #4A5866",
"S  c #455461",
"D  c #525B65",
"F  c #5B556C",
"G  c #596268",
"H  c #5C6975",
"J  c #646564",
"K  c #696966",
"L  c #6C6C6A",
"P  c #63686B",
"I  c #71716D",
"U  c #747573",
"Y  c #7D7B76",
"T  c #7C7D7B",
"R  c #767776",
"E  c #6C6D71",
"W  c #775B64",
"Q  c #881706",
"!  c #872303",
"~  c #893704",
"^  c #993804",
"/  c #952A02",
"(  c #A23500",
")  c #A73E02",
"_  c #823E32",
"`  c #9A4A02",
"'  c #9B480C",
"]  c #9A5702",
"[  c #8D4C12",
"{  c #A34B03",
"}  c #AA4605",
"|  c #A95604",
" . c #B85903",
".. c #AC541D",
"X. c #947A1A",
"o. c #AB6602",
"O. c #BC6C07",
"+. c #B57506",
"@. c #B66612",
"#. c #B87512",
"$. c #A8711E",
"%. c #9D4436",
"&. c #AC4E24",
"*. c #B26C34",
"=. c #866825",
"-. c #C15F02",
";. c #CB7B04",
":. c #C97402",
">. c #CB7108",
",. c #9B6453",
"<. c #B27552",
"1. c #897069",
"2. c #AB7873",
"3. c #91554D",
"4. c #7F817E",
"5. c #B08810",
"6. c #B3B31C",
"7. c #BCB42E",
"8. c #CB8506",
"9. c #D18A05",
"0. c #D69509",
"q. c #D99903",
"w. c #D29317",
"e. c #C88615",
"r. c #DCA307",
"t. c #DBA918",
"y. c #E2A60A",
"u. c #E7B808",
"i. c #E5B310",
"p. c #E7BA12",
"a. c #E9B61C",
"s. c #F3B008",
"d. c #D39730",
"f. c #DBA123",
"g. c #D8A336",
"h. c #D4B43B",
"j. c #E4BC2B",
"k. c #E18A06",
"l. c #EDCB14",
"z. c #EECD1D",
"x. c #EAC214",
"c. c #F3C814",
"v. c #F6D615",
"b. c #EFC608",
"n. c #FCE80D",
"m. c #F3D725",
"M. c #E9C537",
"N. c #EFD13A",
"B. c #F3D635",
"V. c #EBCA2B",
"C. c #FBE527",
"Z. c #F7E634",
"A. c #83817C",
"S. c #9D826E",
"D. c #A78D78",
"F. c #B38C51",
"G. c #CA8C51",
"H. c #C08860",
"J. c #DEB356",
"K. c #F5DB57",
"L. c #F0D246",
"P. c #F8E648",
"I. c #FFF846",
"U. c #F8EA57",
"Y. c #FFF657",
"T. c #F7DA67",
"R. c #E2C37B",
"E. c #F6E76C",
"W. c #FEF86A",
"Q. c #F7EF73",
"!. c #FFFE7C",
"~. c #F8F279",
"^. c #777C83",
"/. c #7C8489",
"(. c #858582",
"). c #888780",
"_. c #8C8B85",
"`. c #8F8F89",
"'. c #848B8C",
"]. c #8E908B",
"[. c #939087",
"{. c #95948D",
"}. c #9B988F",
"|. c #939692",
" X c #9C9B93",
".X c #9D9E9A",
"XX c #979B99",
"oX c #8B9196",
"OX c #A09D92",
"+X c #AF8C90",
"@X c #A2A196",
"#X c #A4A49A",
"$X c #A9A79B",
"%X c #ACA99E",
"&X c #9EA2A2",
"*X c #AEAEA3",
"=X c #A7ADAA",
"-X c #B1AEA0",
";X c #BBA1A9",
":X c #B3B2A6",
">X c #B6B6AB",
",X c #B9BAAD",
"<X c #B1B7B5",
"1X c #BDBDB0",
"2X c #BABAB8",
"3X c #A9B2B5",
"4X c #B49CAE",
"5X c #CAAFAE",
"6X c #CEA091",
"7X c #ECCF91",
"8X c #FCF886",
"9X c #FDEC98",
"0X c #FCFB96",
"qX c #F7EA8B",
"wX c #C1C3B4",
"eX c #C7C8B7",
"rX c #CCCCBB",
"tX c #C6C8BA",
"yX c #D7D1BC",
"uX c #EAD2AE",
"iX c #FEFDAF",
"pX c #FDFAA4",
"aX c #FFFFB6",
"sX c #FDF5B8",
"dX c #F6ECB2",
"fX c #DDD984",
"gX c #B8BCC3",
"hX c #CFD0C7",
"jX c #D1D1C0",
"kX c #CFD0D0",
"lX c #FEFEC3",
"zX c #FAF4C7",
"xX c #FDFEDC",
"cX c #FAFAD4",
"vX c #EDE4CC",
"bX c #E7E8E8",
"nX c #FDFBE8",
"mX c #FEFFFE",
"MX c #FCFCF4",
"NX c #E1DDEE",
/* pixels */
"v x z Y _._.C z z U [.[.K m L C m x Y {._.m x z Y [.[.C z x A.[._.m z z Y {.[.J z z U {.[.J z l U }.",
"[.{.}.m = i Y  X XJ i l I ).L _. X XM = l _. X Xm = i A.OX}.x = i _.OX XM = i Y @X@XC = i U OX XJ = ",
"}.OX@Xm - & A.$X#XJ & & I _.L [.@X#XM % = _.#X@Xm - & A.%X@Xz - & [.$X#XM & & Y %X%XC - - Y %X$XK % ",
"[.{.{.M l l Y  X}.K z l U [.I ).{.{.N l z _.}.{.M l l T  X{.m l l _. X XC l l Y OX XJ l l Y OX XK l ",
"z l i ).OXOXN i i R }.{.[.[.{.N l l (.@X Xm i h (. X XN = z `. X Xm i l A.@X@XJ i i T #X@XJ i = I @X",
"8 = * _.$X#XN & & Y #X X{.{. XM * * _.%X@Xx & * _.$X#XM - = {.$X@Xm & & A.%X%XC & - A.-X%XJ & & U %X",
"z l i _.#X@XC i i Y #X{.{.[. XN l i _.#X Xm i i _.#X XN = i _.#X Xm i i A.$X#XJ i = A.$X#XK i i U $X",
"_.[.{.N x c A. X{.K x z {.|.x (.}.{.C z v (.|.{.N z c 4. X|.M z v _. X|.J z c T  X XK x z Y  X XL x ",
" X@X#Xm * * A.%X$XJ & - &XhX& _.$X#Xm & i |.#X&Xn p p /.=X&Xv p i [.$X$XM & * A.-X*XJ & & Y -X%XL & ",
"}.@X#XM = = A.%X$XL & % =XhX& Y #X#Xm i h oXXX|.m 8 8 e V Z v h s |.%X#XN = = A.*X%XJ = * A.-X*XI = ",
"M M M A._._.L M m T 2X:XbXmXhX2XT v /.oX1.e q ..g.M.M.V.j.t.;.` e F A n T [.`.L m m T {.[.I M m U [.",
"l i i [.%X%XC = & A.hXhXkXMXXX&XP d W D.G.J.U.!.aXsXsXsXzXxX0X!.c.| 8 d '.*X*XJ * * (.:X*XK * & Y -X",
"z l = [.-X%XJ i * A.%X}.|.<X% D M 9 +.J.mXuX6XF.+.] ` ` ' +X4XuXiXW.s.7 ^.=X*XJ = * (.:X*XL i * Y -X",
"A.A.A.L J J T (.(.I J M |.kX/.W ..L.cX7X,.3 1 | o.o.+.+.+.| 5 1 2.mX8Xs.[ F H /._.(.U J J R _.).U J ",
"@X$X%XM = i _.*X*XJ & * ^.3XS.<.nXsXF.3 ~ e.L.P.P.Z.Z.C.v.v.p.8.1 3.mX0Xu.7 d R <X=XK i = (.:X*XI = ",
"#X$X%XM i i _.:X*XL = = ^.S.G.mX5X, ~ g.8XpXiXnXmXU.Z.C.P.z.l.v.i.5 ,.mXY.q.6 [ 1.<XL = = ).:X:XI i ",
"R U U R R R R R U R T ^.V G.mX+X3 @.9XmXmXMX0XsXE.P.U.Q.E.l.l.l.b.8.5 R.I.c.| g.+.V /.A.Y R R R Y Y ",
"x l h {.*X*XJ i i 4.3X1.<.mX2., d.cXmXmXmXnXMX~.Z.U.8XE.l.l.l.p.u.y.| ` dXI.O.F.W.o.V <X>XL i i A.:X",
"x l i {.:X*XJ i i '.OX| lX7X< w.lXmXmXxXxXmXdXZ.Z.Q.8Xm.b.l.x.B.T.r.:.< uX8Xs.4 fXI.| W <XL h i A.>X",
"L L L A.(.(.U L L ^.,.T.MX9  .W.mXmXnXpXxXdXm.m.E.aXK.l.N.l.u.~.7Xr.q.~ g.cXb.6 Z cXa.7 /.T L I T (.",
"#X%X*XN l h _.*X=XV 5.aX<.5 m.!.mXxXU.lXlXm.C.~.iXE.l.v.zXV.m.0Xf.q.q.^ ..MXU.~ X uX8XO.# '.>X>XU l ",
"#X%X*XC l h ].*X=X*.U.vX< 9.Y.xXxXU.U.xXE.v.Q.9XB.l.v.m.zXB.P.j.0.r.9.( %.xXZ.` X *.lXM.3 oX>X:XR l ",
"].].].U P P (.oX(.h.lX*.~ L.!.W.U.0XMXE.Z.8XqXz.l.v.m.m.dXZ.p.r.r.;.:.) ..zXn.` X { iXK.1 E |.{.T L ",
"m v z  X:X:XJ j 9 g.MX6 | L.0XQ.~.xXE.C.0XqXl.l.z.l.l.p.cXP.r.9.q.9.-.^ 6XxXu.{   | pXT.1 p n c _.>X",
"M v c  X:X*XP s =.9X7X6 y.B.E.iXsXK.P.8XP.l.l.l.m.dXdXzXmXnXuXuX7X9.} < bX!. .{ o $.lXK.1 & n c _.,X",
"K J J ]. X XR B $.lX*.~ l.N.Q.0XQ.m.~.L.l.l.l.l.z.L.K.E.nXT.M.L.g. .! +XmXa. .O.O F.aXv.< 8 E J _.$X",
"#X*X:XL v v XXD.<.mX%.` v.i.N.B.m.B.B.l.z.z.l.l.x.b.m.0.dXi.q.8.-.) 2 hXaXO.^ >.o R.0X:., B 1X,XT m ",
"*X*X:XL v v .XD.H.mX%.^ K.L.y.z.m.m.z.m.l.x.l.l.x.m.t.9.vXf.;.:. .! <.mXL.^ } > [ pXqX) ` D wX1XT v ",
"#X*X*XU N N &X+X#.lX*.! f.V.p.x.a.z.x.x.p.p.x.x.z.t.9.0.7Xw.;.-.( _ mX0X| ^ 8.  G.iXe.(  .D <X>X(.N ",
"J N N .X:X:X^.B +.lXg.< O.q.z.z.x.l.x.p.p.p.i.r.y.0.0.9.8.;. .( 6 NXlXq.! >.o q B.m.| >.[ P J G {.,X",
"C M m #X,X>XR g o.0XvX2 } 8.y.i.p.i.i.i.i.y.r.q.q.q.9.;.:.-.^ 1 kXMXi.{ } ' O d.W.@.Q :.i /.M m |.wX",
"C N N #X,X>X/.g ] 0XmX*.< -.8.9.9.9.9.0.0.9.8.8.8.8.:.-. ./ *.vXmXm.^ ^ c.. w C.f.}  .o /.(.N N |.wX",
" X#X%XT L L #XoXw v.W.vX9 !  .:.;.8.9.8.;.;.;.;.;.:.-.^ , 2.mXnXM.Q #.>.[ 4 a.a.! ;.-.; H .X:X:X_.L ",
">X,X1XU m M #XhXF 5.C.W.yX9 , }  .-.-.:.;.;.;.-. .} 1 3.+XmX!.r.} ~ >.5.o ;.9.' @. .# k A .XeXeX_.M ",
",X1XwXU M M #XhX/.4 l.n.Y.yX4X0 < ( ) ) } ^ ^ ~ < 9 ;XzXaXE.O.5 ' C.7 # '  .>.} z.$ a A b @XrXrX`.N ",
"(.(.4. X X X_./.H + 6 e.C.I.lXbX5X9 9 9 9 9 0 +XbXcXmX8Xu.] , f.#.7.  2 ^ 2 a.8.  u A D E `.(.(.{. X",
"J C N *XeXeX(.n k a O Q #.V.C.I.aXxXcXcXcXcXcXxXpXL.e.' ! t.8.t.6.  6 2 O.a.] r f a b H .X_.N N  XrX",
"K C N *XeXeX(.G j k y 7 { Q +.8.w.z.m.C.C.m.a.8.+.| < #.e.@.V.O O > #.v.^ r @ u kXk A R >X_.J N  XrX",
"4.A.A.@X*X*X{.4.G b k + # | } ^ 2 ( { { { } ^ ;.! z.v./ V.8 8 > ~ 9.~ X.O @ t S NXS c J #X{.A.A. X*X",
"1XwXtXY C J *XjXXXA a a y : 6 O.^ @.) -.Q V.' t.w.' n.4 $ o > | 6 4 @ @ u 3XgXkXmXkX<X2XL #XjXrX[.J ",
"1XwXwXA.K J *XrX1X(.D k j k t @ > q [ X.q 5.X.q 6.. @ @ @ . @ + + + y y j /.oX<XMX<X&X.XR %XeXeX{.K ",
"1XwXtXA.K K *XrXrX XI D n G A a t t t + t + + + t y y u u u k j S k a k D G S E bX_.I K L %XrXeX{.K ",
"A.T T %X>X>X[.T T @X,X*X4.G D n A D S j b a y a j S S b j j j s j G P P G G G T bXA.OX>X>X[.T T  X>X",
"I L J >XrXrX_.J J $XrXeX#XY R R 4.R H G G b j j D G G D n S j j b 4. X$X(.U U A. XA.:XrXrX`.K J @XyX",
"I L J >XrXrX_.J J %XjXjX XL L }.eXwX#X{.{.U L J _.XX|.A.R T P U A.,XjXjX_.L I Y L K *XjXjX[.J J #XjX",
"@X#X#X{.[.].#X#X@X X{.[. X%X#X X}. X{.{.{.#X$X$X X}.}. X}. X%X%X%X X{. X#X#X#X@X@X X{.{.{. X#X#X X{.",
"wXeXeXA.K L *XrXrX{.K K @XrXrX@XL U Y U R ,XeXtX(.L I [._.).wXeXwXA.L U *XeXtX1X>X,X_.L K %XrXrX{.K ",
"wXeXeX(.K L *XrXeX{.K K  XrXeX XI Y Y I U 1XeXtX(.L I [.A.Y wXeXwXA.I L *XeXeX,X:X>X_.L L %XrXrX XL ",
"*X*X*X{.).(.#X:X*X X).A. X:X*X X_._._._._.%X*X*X{.(.(. X{.`.*X*X*X[.).(.#X:X*X*X*X:X{.).(.@X*X*X X).",
"I I I ,XrXrX_.I U %XeXeX XI I  XwX1X1XwXwXA.I U :XtXwX:X>X1XY I Y ,XeXeX`.U R {.#X#X1XeXrX[.I U #XrX"
};
