/* XPM */
static char *collectable[] = {
/* columns rows colors chars-per-pixel */
"32 32 5 1 ",
"  c black",
". c #0F8A04",
"X c #17C208",
"o c #96ED8E",
"O c #C9D6D0",
/* pixels */
"OOOOOOOOOOOOOOOOOOOOOOOOOOOOOOOO",
"OOOOOOOOOOOOOOOOOOOOOOOOOOOOOOOO",
"OOOOOOOOOOOOOO    OOOOOOOOOOOOOO",
"OOOOOOOOOOOOO  ..  OOOOOOOOOOOOO",
"OOOOOOOOOOOO  .XX.  OOOOOOOOOOOO",
"OOOOOOOOOOO  XXXX..  OOOOOOOOOOO",
"OOOOOOOOOO  XXXXX...  OOOOOOOOOO",
"OOOOOOOOOO XX X  o .. OOOOOOOOOO",
"OOOOOOOOOO XXX oo ... OOOOOOOOOO",
"OOOOOOOOOO XXX oX ... OOOOOOOOOO",
"OOOOOOOOOO XXX oX ... OOOOOOOOOO",
"OOOOOOOOOO XXo oX ... OOOOOOOOOO",
"OOOOOOOOOO Xoo oX ... OOOOOOOOOO",
"OOOOOOOOOO ooX XX ... OOOOOOOOOO",
"OOOOOOOOOO oXX XX ... OOOOOOOOOO",
"OOOOOOOOOO oXX XX ... OOOOOOOOOO",
"OOOOOOOOOO oXX XX ... OOOOOOOOOO",
"OOOOOOOOOO XXX XX ... OOOOOOOOOO",
"OOOOOOOOOO XXX XX ... OOOOOOOOOO",
"OOOOOOOOOO XXX XX ... OOOOOOOOOO",
"OOOOOOOOOO XXX XX ... OOOOOOOOOO",
"OOOOOOOOOO XXX XX ... OOOOOOOOOO",
"OOOOOOOOOO XXX XX ... OOOOOOOOOO",
"OOOOOOOOOO XXX XX ... OOOOOOOOOO",
"OOOOOOOOOO XX X  o .. OOOOOOOOOO",
"OOOOOOOOOO  XXXXX...  OOOOOOOOOO",
"OOOOOOOOOOO  XXX...  OOOOOOOOOOO",
"OOOOOOOOOOOO  X...  OOOOOOOOOOOO",
"OOOOOOOOOOOOO  ..  OOOOOOOOOOOOO",
"OOOOOOOOOOOOOO    OOOOOOOOOOOOOO",
"OOOOOOOOOOOOOOOOOOOOOOOOOOOOOOOO",
"OOOOOOOOOOOOOOOOOOOOOOOOOOOOOOOO"
};
