/* XPM */
static char *open_door[] = {
/* columns rows colors chars-per-pixel */
"32 32 5 1 ",
"  c black",
". c #9C3A10",
"X c #9C5A3C",
"o c #B4B4B4",
"O c #C9D6D0",
/* pixels */
"OOOOOOOOOOOOOOOOOOOOOOOOOOOOOOOO",
"OOOOOOOOOOOOOOOOOOOOOOOOOOOOOOOO",
"OOOOOOOOOOOOOOOOOOOOOOOOOOOOOOOO",
"OOOOOOOOOOOOOOOOOOOOOOOOOOOOOOOO",
"OOOOOOOOOOOOOOOOOOOOOOOOOOOOOOOO",
"OOOOOOOOOOOOOOOOOOOOOOOOOOOOOOOO",
"OOOOOOOOOOOOOOOOOOOOOOOOOOOOOOOO",
"OOOOOOOOOOOOOOOOOOOOOOOOOOOOOOOO",
"OOOOO    OOOOO    OOOOOOOOOOOOOO",
"OOOO X..X OOO      OOOOOOOOOOOOO",
"OOO .X..X. O        OOOOOOOOOOOO",
"OOO .X..X. O        OOOOOOOOOOOO",
"OO X.X..X.X          OOOOOOOOOOO",
"OO X.X..X.Xo         OOOOOOOOOOO",
"OO X.X..X.Xo         OOOOOOOOOOO",
"OO X.X..X.X          OOOOOOOOOOO",
"OO X.X..X.X          OOOOOOOOOOO",
"OO X.X..X.X          OOOOOOOOOOO",
"OO X.X..X.X          OOOOOOOOOOO",
"OO X.X..X.X          OOOOOOOOOOO",
"OO X.X..X.X          OOOOOOOOOOO",
"OO X.X..X.X          OOOOOOOOOOO",
"OO X.X..X.X          OOOOOOOOOOO",
"OO X.X..X.X          OOOOOOOOOOO",
"OO X.X..X.X          OOOOOOOOOOO",
"OO X.X..X.X          OOOOOOOOOOO",
"OO X.X..X.X          OOOOOOOOOOO",
"OO X.X..X.X          OOOOOOOOOOO",
"OO X.X..X.X          OOOOOOOOOOO",
"OO X.X..X.Xo         OOOOOOOOOOO",
"OO X.X..X.Xo         OOOOOOOOOOO",
"OO X.X..X.X          OOOOOOOOOOO"
};
