/* XPM */
static char *player[] = {
/* columns rows colors chars-per-pixel */
"32 32 7 1 ",
"  c black",
". c #464646",
"X c #575357",
"o c #990030",
"O c gray55",
"+ c #B4B4B4",
"@ c #C9D6D0",
/* pixels */
"@@@@@@@@@@@@@@@   @@@@@@@@@@@@@@",
"@@@@@@@@@@@@@@ ooo @@@@@@@@@@@@@",
"@@@@@@@@@@@@         @@@@@@@@@@@",
"@@@@@@@@@@  OOOOOOOO+  @@@@@@@@@",
"@@@@@@@@@ OOOOOO OOOO++ @@@@@@@@",
"@@@@@@@@@ OOOO  .  OOO+ @@@@@@@@",
"@@@@@@@@ OOO  .....  OO+ @@@@@@@",
"@@@@@@@@ O  ........O  + @@@@@@@",
"@@@@@@@@  ...........OO  @@@@@@@",
"@@@@@@@@ ...... . .....O @@@@@@@",
"@@@@@@@@ .... . . . ...O @@@@@@@",
"@@@@@@@@ .. . . . . . .O @@@@@@@",
"@@@@@@@@ .. . . . . . .O @@@@@@@",
"@@@@@@@@ .. . . . . . .O @@@@@@@",
"@@@@@@@@@ ............. @@@@@@@@",
"@@@@@@@@@@             @@@@@@@@@",
"@@@@@@@@@@@@@ XXXXX @@@@@@@@@@@@",
"@@@                        @@@@@",
"@@ OOOOO OOOOOOXXOOOOOO OO+ @@@@",
"@ OO.o.OO OO+++XX+++OOO OOO+ @@@",
"@ O.o.o.O OOO++XX++OOO   OO+ @@@",
"@ Oo.o.oO OOOOOXXOOOOO @ OOO @@@",
"@ Oo.o.oO OOOO++++OOOO @     @@@",
"@ Oo.o.oO XXXX+..+XXXX @ ++X @@@",
"@ Oo.o.oO XXXX+..+XXXX @ ++X @@@",
"@ O.o.o.O XXXX+..+XXXX @ ++X @@@",
"@@ O.o.O  OOOO++++OOOO @ ++X @@@",
"@@@ OOO @ OOOO    OOOO @ ++X @@@",
"@@@@   @@@    @@@@    @@ ++X @@@",
"@@@@@@@@  OOOO @@ OOOO   ++X @@@",
"@@@@@@@ OOOOOO @@ OOOOOO  +X @@@",
"@@@@@@@        @@        @  @@@@"
};
