/* XPM */
static char *wall[] = {
/* columns rows colors chars-per-pixel */
"32 32 152 2 ",
"   c #2E242D",
".  c #2F242D",
"X  c #2F252E",
"o  c #30252E",
"O  c #30262E",
"+  c #30262F",
"@  c #31262F",
"#  c #31272F",
"$  c #32272F",
"%  c #322730",
"&  c #322830",
"*  c #322831",
"=  c #332931",
"-  c #332932",
";  c #342931",
":  c #342A31",
">  c #342932",
",  c #342A32",
"<  c #352A32",
"1  c #352B32",
"2  c #352B33",
"3  c #362B32",
"4  c #362B33",
"5  c #362C33",
"6  c #362C34",
"7  c #372C34",
"8  c #372D34",
"9  c #382D34",
"0  c #382D35",
"q  c #382E34",
"w  c #392E34",
"e  c #382E35",
"r  c #392E35",
"t  c #392F35",
"y  c #3A2F35",
"u  c #392E36",
"i  c #392F36",
"p  c #3A2F36",
"a  c #3A2F37",
"s  c #3A3036",
"d  c #3B3036",
"f  c #3B3037",
"g  c #3B3137",
"h  c #3C3137",
"j  c #3C3237",
"k  c #3B3138",
"l  c #3C3138",
"z  c #3C3238",
"x  c #3D3238",
"c  c #3D3338",
"v  c #3D3339",
"b  c #3E3339",
"n  c #3E3439",
"m  c #3F3439",
"M  c #3F343A",
"N  c #40353A",
"B  c #40363A",
"V  c #41363B",
"C  c #43383D",
"Z  c #43393D",
"A  c #44393D",
"S  c #44393E",
"D  c #443A3E",
"F  c #453A3E",
"G  c #443A3F",
"H  c #453A3F",
"J  c #453B3F",
"K  c #463B3F",
"L  c #463C3F",
"P  c #463B40",
"I  c #463C40",
"U  c #473C40",
"Y  c #473D41",
"T  c #483D41",
"R  c #483E41",
"E  c #483D42",
"W  c #483E42",
"Q  c #493E42",
"!  c #483F42",
"~  c #493F42",
"^  c #493E43",
"/  c #493F43",
"(  c #4A3F42",
")  c #4A3F43",
"_  c #4A4043",
"`  c #4B4043",
"'  c #4B4143",
"]  c #4B4044",
"[  c #4B4144",
"{  c #4B4244",
"}  c #4C4144",
"|  c #4C4145",
" . c #4C4244",
".. c #4C4245",
"X. c #4D4245",
"o. c #4C4345",
"O. c #4D4345",
"+. c #4E4345",
"@. c #4C4246",
"#. c #4D4346",
"$. c #4E4346",
"%. c #4E4347",
"&. c #4D4445",
"*. c #4D4446",
"=. c #4E4446",
"-. c #4F4446",
";. c #4E4447",
":. c #4F4447",
">. c #4E4547",
",. c #4F4547",
"<. c #4F4448",
"1. c #504547",
"2. c #504548",
"3. c #504648",
"4. c #514648",
"5. c #514649",
"6. c #514749",
"7. c #524649",
"8. c #524749",
"9. c #52464A",
"0. c #52474A",
"q. c #53474A",
"w. c #53474B",
"e. c #52484A",
"r. c #53484A",
"t. c #53484B",
"y. c #54484B",
"u. c #54494B",
"i. c #54484C",
"p. c #55484C",
"a. c #54494C",
"s. c #55494C",
"d. c #55494D",
"f. c #56494D",
"g. c #554A4C",
"h. c #564A4D",
"j. c #564B4D",
"k. c #56494E",
"l. c #564A4E",
"z. c #574A4E",
"x. c #594C4F",
"c. c #594D4F",
"v. c #594D50",
"b. c #5A4D50",
"n. c #5B4E51",
"m. c #5C4F52",
"M. c #5D5052",
"N. c #5D5053",
"B. c #5E5154",
"V. c #5F5154",
"C. c #5F5254",
"Z. c #5F5255",
/* pixels */
"y.m.C.C.C.C.C.C.C.C.C.C.C.C.C.C.C.C.C.C.N.o.w x 8.N.C.C.b.8.( = ",
"m.y.8.8.8.8.8.8.8.8.8.8.8.8.8.8.8.8.8.8.8.o.H k 8.d.8.8.8.=.( = ",
"C.8.o.{ o.=.=.=.=.=.=.o.o.=.=.=.o.o.o.o.=.=.( w =.x.<.o.=.=.( = ",
"m.8.( H { =.=.=.=.o.o.=.=.=.=.=.=.=.=.=.=.=.( x y.y.=.=.=.=.( = ",
"o.( H _ =.=.=.=.=.=.=.=.=.=.=.o.o.=.=.=.o.=.( x d.8.o.=.=.=.( = ",
"m B ( { { { { { { { { o.o.{ { { { o.o._ { { H x d.8.=.=.=.=.( = ",
"w w h g h h x m m x x x x g x x x x g x x x w w d.8.=.=.=.=.( 2 ",
"5 w w w w 2 5 g w 7 7 w w w 7 7 2 7 w w w w 2 w d.8.o.=.=.=.( 2 ",
"o.d.d.d.y.{ P g w ( d.d.d.d.U w ( d.d.d.d.d.P w 8.8.o.o.=.=.( 2 ",
"N.y.8.8.8.8.( w ( x.y.8.e.8.( g 8.d.8.8.8.8.( w _ =.=.o.o.=.( 2 ",
"m.e.o.o.o.=.( x y.d.=.o.=.=.( w { =.o.o.o.=.( w ( 1.o.o.o.=.( 2 ",
"d.x.8.o.o.=.( x d.8.o.=.=.=.( w ( =.=.=.=.=.( x y.8.o.o.=.=.( = ",
"b.e.=.=.=.=.( g 8.8.=.=.=.=.( w ( =.o.=.o.=.U x d.8.o.=.o.=.( 2 ",
"y.=.o.=.=.=.( w ( o._ { { o.H 7 U o.{ { { ( x w d.8.o.=.o.=.( = ",
"b.8.o.=.=.=.( 2 w x h x h x g 7 w x x k x g 2 w d.8.o.=.o.=.( 2 ",
"C.8.=.=.o.=.( 2 2 w w w 2 2 w m w w w w 7 7 2 w y.8.o.=.o.=.( = ",
"C.8.=.=.=.=.( w ( d.d.w.{ ( H g ( d.d.8.o.8.U w o.=.o.=.=.=.( 2 ",
"m.8.=.=.=.=.( x y.d.8.8.=.=.( x d.d.8.8.1.8.( k 8.8.o.=.=.=.( 2 ",
"8.=.=.=.=.=.( x d.8.o.o.o.=.( x d.8.o.o.=.=.( x d.8.o.o.=.=.( 2 ",
"=.=.=.=.=.=.( g 8.8.o.o.=.=.( g 8.8.o.o.o.=.( x d.8.o.=.=.=.( 2 ",
"=.=.=.=.=.=.( w _ =.=.=.=.=.( w { =.o.o.=.=.( g y.8.=.=.=.=.U = ",
"=.=.=.=.o.=.( w P o.o.o.{ o.U w U ( C ( o.o.H 7 ( o.o.{ o._ m O ",
"=.=.=.=.=.=.( 5 w x g x x h w = w g w g x x w = w x x h x h w O ",
"=.=.=.=.=.=.( 2 2 w w w w w 7 2 w w w 2 2 2 2 2 2 2 2 2 2 2 2 O ",
"=.=.=.=.=.=.( w ( d.d.d.d.d.y.=.d.d.y.{ ( ( ( ( ( ( ( ( ( ( H = ",
"=.=.=.=.=.=.( g d.d.8.8.8.8.y.b.y.8.8.=.=.=.=.=.=.=.=.=.=.=.( 2 ",
"=.=.=.=.=.=.( x d.8.=.=.=.o.=.8.=.o.=.=.=.=.=.=.=.=.=.=.=.o.U = ",
"=.=.=.=.=.=.( x d.8.=.=.=.=.o.o.=.=.=.=.=.=.=.=.=.=.=.=.=._ B % ",
"=.=.=.=.=.=.U g y.8.=.=.=.=.o.{ { o.=.=.=.=.=.=.=.=.=.=._ H H 2 ",
"{ { o.{ o.( x 2 ( o.{ { o.{ _ H C _ { { { { o.{ { { o.( B ( H = ",
"x x x x x w O O w x h h h h x H H x x x h x m m x x x g 2 g w O ",
"O O O O O O     O O O O O O O = 2 O O O   = w w % O O O   O O   "
};
