/* XPM */
static char *wall[] = {
/* columns rows colors chars-per-pixel */
"32 32 2 1 ",
"  c black",
". c #464646",
/* pixels */
"                                ",
" ....... ......  ........ ..... ",
" .......  ......  ....... ..... ",
" ........ ........ ...... ..... ",
" ........ ........  ....  ..... ",
" ........ ......... ...  ...... ",
" ........ .........     ....... ",
"  .......  .......  ..  ....... ",
"   ....  ..   ...  ....  ...... ",
" .      .....     .....    ...  ",
" .... ........ .  ...... .      ",
" ....  ....... .. ...... ...... ",
" ..... ....... .. ...... ...... ",
" ..... ....... ..  ..... ...... ",
" ..... ......  ...  ...   ....  ",
" ..... .....  .....  .  .       ",
" ....   ...  .......   .......  ",
" ...  .      ......   ........  ",
"     .... ... ..... . ......    ",
"  ....... ....  .   ..  ..   .. ",
" ........ .....  ......    .... ",
" ........ .....  ........ ..... ",
" ........ .....  ........ ..... ",
" .......  ..... ......... ....  ",
" ......  ...... ......... ...   ",
" ....   ...... .........      . ",
"      .......    .....   ...... ",
" ..... ....   ..       .. ..... ",
" ......     .....  ......  .... ",
" ...... .......... ....... .... ",
" ...... ........... .....  .... ",
"                                "
};
